<?xml version="1.0" standalone="no"?>
<!DOCTYPE svg PUBLIC "-//W3C//DTD SVG 20010904//EN"
 "http://www.w3.org/TR/2001/REC-SVG-20010904/DTD/svg10.dtd">
<svg version="1.0" xmlns="http://www.w3.org/2000/svg"
 width="260.000000pt" height="260.000000pt" viewBox="0 0 260.000000 260.000000"
 preserveAspectRatio="xMidYMid meet">
<metadata>
Created by potrace 1.11, written by Peter Selinger 2001-2013
</metadata>
<g transform="translate(0.000000,260.000000) scale(0.100000,-0.100000)"
fill="#000000" stroke="none">
<path d="M1930 2469 l-155 -100 -107 -482 c-114 -508 -198 -908 -198 -936 0
-14 26 -22 138 -45 75 -15 147 -30 158 -33 20 -4 24 3 44 94 12 54 28 125 36
158 8 33 66 361 130 730 63 368 117 680 119 693 3 12 2 22 -2 21 -5 0 -78 -45
-163 -100z"/>
<path d="M0 2487 c0 -30 4 -57 8 -59 4 -1 15 -82 25 -178 71 -733 119 -1204
127 -1255 6 -33 10 -63 10 -67 0 -5 14 -8 32 -8 37 0 281 30 287 36 6 5 -43
395 -109 869 -11 77 -29 208 -40 290 -11 83 -23 162 -26 177 -4 20 -36 50
-132 121 -70 52 -139 102 -154 112 l-28 17 0 -55z"/>
<path d="M1025 1426 c-2 -12 -9 -75 -15 -141 -5 -66 -30 -335 -55 -597 -25
-262 -45 -490 -45 -506 l0 -29 120 -23 c67 -12 124 -20 127 -16 7 7 335 1238
331 1241 -2 1 -105 22 -231 47 -225 44 -227 44 -232 24z"/>
<path d="M526 1372 c-6 -11 7 -151 63 -682 28 -261 51 -480 51 -487 0 -10 29
-13 120 -13 l120 0 0 28 c0 24 16 246 60 817 5 72 12 176 16 233 l7 102 -64 1
c-35 1 -132 3 -216 5 -84 2 -154 0 -157 -4z"/>
<path d="M2070 904 c-129 -46 -284 -102 -345 -123 -60 -22 -145 -52 -189 -68
l-78 -28 -65 -129 -64 -128 42 -100 c24 -54 46 -101 51 -104 4 -3 45 10 91 30
45 19 222 94 392 166 l310 132 172 170 171 170 -12 42 c-11 39 -14 41 -61 48
-135 18 -165 12 -415 -78z"/>
</g>
</svg>
